<svg width="48" height="48" viewBox="0 0 48 48" xmlns="http://www.w3.org/2000/svg" xmlns:xlink="http://www.w3.org/1999/xlink"><defs><path id="youtube_svg__a" d="M0 0h47.91v33.537H0z"></path></defs><g transform="translate(0 7)" fill="none" fill-rule="evenodd"><mask id="youtube_svg__b" fill="#fff"><use xlink:href="#youtube_svg__a"></use></mask><path d="M19.164 23.955V9.582l12.447 7.186-12.447 7.187zM46.909 5.237A6.001 6.001 0 0042.673 1c-3.736-1-18.718-1-18.718-1S8.973 0 5.237 1A6 6 0 001 5.237C0 8.973 0 16.768 0 16.768S0 24.564 1.001 28.3a6 6 0 004.236 4.236c3.736 1 18.718 1 18.718 1s14.982 0 18.718-1a6.001 6.001 0 004.236-4.236c1-3.736 1-11.532 1-11.532s0-7.795-1-11.531z" fill="currentColor" mask="url(#youtube_svg__b)"></path></g></svg>